<svg width="14" height="14" viewBox="0 0 14 14" fill="none" xmlns="http://www.w3.org/2000/svg">
<path d="M13 3.94376C12.8823 4.00471 12.7452 4.01644 12.6189 3.97635C12.4925 3.93627 12.3873 3.84767 12.3262 3.73001C11.849 2.7872 11.1266 1.99033 10.235 1.42314C10.1794 1.38809 10.1313 1.34245 10.0934 1.2888C10.0554 1.23516 10.0285 1.17457 10.0139 1.1105C9.99943 1.04643 9.99769 0.980125 10.0088 0.915377C10.0199 0.85063 10.0437 0.788705 10.0787 0.73314C10.1138 0.677574 10.1594 0.629456 10.2131 0.591531C10.2667 0.553607 10.3273 0.52662 10.3914 0.512111C10.4554 0.497602 10.5217 0.495855 10.5865 0.506969C10.6512 0.518084 10.7132 0.541843 10.7687 0.57689C11.8078 1.24222 12.6516 2.17162 13.2137 3.27001C13.2747 3.38771 13.2864 3.5248 13.2463 3.65114C13.2062 3.77747 13.1176 3.88273 13 3.94376ZM1.23185 4.00001C1.32345 3.99998 1.41328 3.97477 1.49153 3.92716C1.56979 3.87955 1.63346 3.81135 1.6756 3.73001C2.15285 2.7872 2.87523 1.99033 3.76685 1.42314C3.87907 1.35236 3.95857 1.2399 3.98787 1.1105C4.01718 0.9811 3.99388 0.845359 3.9231 0.73314C3.85232 0.62092 3.73986 0.541413 3.61046 0.512111C3.48106 0.482808 3.34532 0.50611 3.2331 0.57689C2.19397 1.24222 1.35021 2.17162 0.788096 3.27001C0.74862 3.34621 0.729421 3.43129 0.732346 3.51706C0.735272 3.60283 0.760224 3.6864 0.804801 3.75973C0.849378 3.83307 0.91208 3.89369 0.986872 3.93577C1.06166 3.97785 1.14603 3.99998 1.23185 4.00001ZM12.8631 10.4963C12.9517 10.6482 12.9986 10.8207 12.9992 10.9966C12.9998 11.1724 12.9541 11.3453 12.8665 11.4978C12.779 11.6503 12.6528 11.7771 12.5007 11.8652C12.3485 11.9534 12.1758 11.9999 12 12H9.44997C9.33521 12.5652 9.02861 13.0733 8.5821 13.4382C8.13559 13.8032 7.57665 14.0025 6.99997 14.0025C6.42329 14.0025 5.86435 13.8032 5.41784 13.4382C4.97134 13.0733 4.66473 12.5652 4.54997 12H1.99997C1.82423 11.9997 1.65169 11.953 1.49973 11.8648C1.34776 11.7765 1.22173 11.6498 1.13435 11.4973C1.04696 11.3448 1.00129 11.172 1.00195 10.9963C1.00261 10.8205 1.04957 10.6481 1.1381 10.4963C1.70122 9.52439 1.99997 8.14251 1.99997 6.50001C1.99997 5.17393 2.52676 3.90216 3.46444 2.96448C4.40212 2.0268 5.67389 1.50001 6.99997 1.50001C8.32605 1.50001 9.59782 2.0268 10.5355 2.96448C11.4732 3.90216 12 5.17393 12 6.50001C12 8.14189 12.2987 9.52376 12.8631 10.4963ZM8.41372 12H5.58622C5.68981 12.2921 5.88135 12.545 6.13451 12.7239C6.38767 12.9027 6.69002 12.9987 6.99997 12.9987C7.30993 12.9987 7.61227 12.9027 7.86543 12.7239C8.11859 12.545 8.31013 12.2921 8.41372 12ZM12 11C11.335 9.85814 11 8.34439 11 6.50001C11 5.43915 10.5785 4.42173 9.8284 3.67159C9.07825 2.92144 8.06084 2.50001 6.99997 2.50001C5.93911 2.50001 4.92169 2.92144 4.17154 3.67159C3.4214 4.42173 2.99997 5.43915 2.99997 6.50001C2.99997 8.34501 2.66372 9.85876 1.99997 11H12Z" fill="white"/>
</svg>
