<svg width="14" height="14" viewBox="0 0 14 14" fill="none" xmlns="http://www.w3.org/2000/svg">
<path d="M5.5 1.00004V0.500041C5.5 0.367433 5.55267 0.240256 5.64644 0.146488C5.74021 0.0527195 5.86739 4.11376e-05 6 4.11376e-05C6.1326 4.11376e-05 6.25978 0.0527195 6.35355 0.146488C6.44732 0.240256 6.5 0.367433 6.5 0.500041V1.00004C6.5 1.13265 6.44732 1.25983 6.35355 1.35359C6.25978 1.44736 6.1326 1.50004 6 1.50004C5.86739 1.50004 5.74021 1.44736 5.64644 1.35359C5.55267 1.25983 5.5 1.13265 5.5 1.00004ZM0.999995 6.00004H1.5C1.6326 6.00004 1.75978 5.94736 1.85355 5.85359C1.94732 5.75983 2 5.63265 2 5.50004C2 5.36743 1.94732 5.24026 1.85355 5.14649C1.75978 5.05272 1.6326 5.00004 1.5 5.00004H0.999995C0.867387 5.00004 0.74021 5.05272 0.646442 5.14649C0.552674 5.24026 0.499995 5.36743 0.499995 5.50004C0.499995 5.63265 0.552674 5.75983 0.646442 5.85359C0.74021 5.94736 0.867387 6.00004 0.999995 6.00004ZM7.77625 1.94754C7.835 1.97697 7.89899 1.99452 7.96453 1.9992C8.03008 2.00388 8.09591 1.99559 8.15825 1.97481C8.2206 1.95403 8.27823 1.92117 8.32786 1.87809C8.37749 1.83502 8.41814 1.78259 8.4475 1.72379L8.9475 0.723791C9.00684 0.60519 9.01663 0.467872 8.97473 0.342047C8.93283 0.216222 8.84266 0.112196 8.72406 0.0528537C8.60546 -0.00648853 8.46814 -0.0162859 8.34231 0.0256167C8.21649 0.0675194 8.11246 0.15769 8.05312 0.276291L7.55312 1.27629C7.52367 1.33501 7.50608 1.39896 7.50136 1.46448C7.49664 1.53 7.50487 1.59581 7.52559 1.65815C7.54631 1.72049 7.57911 1.77813 7.62212 1.82779C7.66513 1.87744 7.7175 1.91814 7.77625 1.94754ZM1.77625 7.05317L0.776245 7.55317C0.657644 7.61251 0.567474 7.71653 0.525571 7.84236C0.483668 7.96818 0.493466 8.1055 0.552808 8.2241C0.61215 8.34271 0.716176 8.43288 0.842001 8.47478C0.967826 8.51668 1.10514 8.50688 1.22375 8.44754L2.22375 7.94754C2.28247 7.91816 2.33483 7.87749 2.37784 7.82788C2.42086 7.77826 2.45367 7.72065 2.47442 7.65835C2.49517 7.59605 2.50344 7.53027 2.49877 7.46477C2.49409 7.39927 2.47657 7.33533 2.44718 7.2766C2.4178 7.21788 2.37714 7.16551 2.32752 7.1225C2.2779 7.07949 2.22029 7.04668 2.15799 7.02593C2.09569 7.00518 2.02991 6.99691 1.96441 7.00158C1.89891 7.00625 1.83497 7.02378 1.77625 7.05317ZM13.7069 11C13.7998 11.0929 13.8734 11.2032 13.9237 11.3245C13.974 11.4458 13.9998 11.5759 13.9998 11.7072C13.9998 11.8386 13.974 11.9686 13.9237 12.09C13.8734 12.2113 13.7998 12.3216 13.7069 12.4144L12.9144 13.2069C12.8215 13.2998 12.7113 13.3735 12.5899 13.4237C12.4686 13.474 12.3385 13.4999 12.2072 13.4999C12.0758 13.4999 11.9458 13.474 11.8244 13.4237C11.7031 13.3735 11.5929 13.2998 11.5 13.2069L8.29375 10L7.1875 12.8807C7.1875 12.8869 7.1825 12.8938 7.17937 12.9007C7.10285 13.0791 6.97553 13.231 6.81328 13.3376C6.65102 13.4442 6.461 13.5007 6.26687 13.5H6.2175C6.01504 13.4915 5.8201 13.4209 5.65902 13.298C5.49795 13.175 5.37852 13.0056 5.31687 12.8125L2.05 2.80754C1.99391 2.63256 1.98713 2.44552 2.03038 2.26694C2.07363 2.08836 2.16524 1.92514 2.29517 1.79522C2.4251 1.66529 2.58831 1.57367 2.76689 1.53042C2.94547 1.48717 3.13252 1.49396 3.3075 1.55004L13.3125 4.81692C13.5037 4.88088 13.6711 5.00116 13.7928 5.16196C13.9144 5.32277 13.9846 5.51659 13.9941 5.718C14.0037 5.91941 13.9521 6.11899 13.8462 6.29056C13.7403 6.46213 13.5849 6.59768 13.4006 6.67942L13.3806 6.68754L10.5 7.79317L13.7069 11ZM13 11.7069L9.79312 8.50004C9.67769 8.38482 9.59219 8.24312 9.54408 8.08729C9.49597 7.93146 9.4867 7.76622 9.51708 7.60599C9.54746 7.44575 9.61658 7.29538 9.7184 7.16797C9.82022 7.04057 9.95165 6.94001 10.1012 6.87504L10.1212 6.86629L12.9931 5.76379L3 2.50004L6.2625 12.4913L7.36562 9.61629C7.36562 9.60942 7.37062 9.60254 7.37375 9.59567C7.43873 9.44619 7.53927 9.31486 7.66661 9.21312C7.79395 9.11138 7.94423 9.04231 8.10437 9.01192C8.16622 9.00045 8.22897 8.99459 8.29187 8.99442C8.55682 8.99471 8.81083 9.10013 8.99812 9.28754L12.2069 12.5L13 11.7069Z" fill="white"/>
</svg>
